# xmcd
#
# Track frame offsets:
#	150
#	7344
#	21296
#	35759
#	47563
#	68040
#	83270
#	96332
#	105568
#	119658
#	136945
#	149408
#	164496
#	176676
#	188866
#	202403
#	214644
#	230286
#	244105
#	259219
#	292275
#
# Disc length: 4036 seconds
#
# Revision: 0
# Processed by: cddbd v1.5.2PL0 Copyright (c) Steve Scherf et al.
# Submitted via: EZCDAudioConverter 2.1.7.1
#
DISCID=420fc215
DTITLE=Crowded House - Woodface 2/2
DYEAR=1900
DGENRE=
TTITLE0=Burnt Out Tree [Home Demo]
TTITLE1=I May Be Late [Home Demo]
TTITLE2=She Goes On [Home Demo]
TTITLE3=As Sure As I Am [Home Demo]
TTITLE4=My Legs Are Gone [Studio Demo]
TTITLE5=You Got Me Going [Home Demo]
TTITLE6=Italian Plastic [Home Demo]
TTITLE7=Be My Guest [Home Demo]
TTITLE8=Weather With You [Home Demo]
TTITLE9=Chocolate Cake [Home Demo]
TTITLE10=How Will You Go [Home Demo]
TTITLE11=It's Only Natural [Home Demo]
TTITLE12=Four Seasons In One Day [Home Demo]
TTITLE13=There Goes God [Home Demo]
TTITLE14=Catherine Wheel [Home Demo]
TTITLE15=All I Ask [Home Demo]
TTITLE16=Fields Are Full Of Your Kind
TTITLE17=Creek Song/Left Hand
TTITLE18=Fall At Your Feet [Early Version Rehearsal]
TTITLE19=The Burglar's Song (Medley) - Around The UK In 7 Minutes [Live]
TTITLE20=I'm Still Here [Full Version]
EXTD=
EXTT0=
EXTT1=
EXTT2=
EXTT3=
EXTT4=
EXTT5=
EXTT6=
EXTT7=
EXTT8=
EXTT9=
EXTT10=
EXTT11=
EXTT12=
EXTT13=
EXTT14=
EXTT15=
EXTT16=
EXTT17=
EXTT18=
EXTT19=
EXTT20=
PLAYORDER=
